<svg width="455" height="90" viewBox="0 0 455 90" fill="none" xmlns="http://www.w3.org/2000/svg">
<g clip-path="url(#clip0_2042_2)">
<rect x="34" y="44.5469" width="19" height="19" fill="black"/>
<rect y="26.5469" width="16" height="37" fill="black"/>
<rect x="53" y="26.5469" width="16" height="37" fill="black"/>
<rect x="53" y="10.5469" width="16" height="37" transform="rotate(90 53 10.5469)" fill="black"/>
<rect x="53" y="63.5469" width="16" height="37" transform="rotate(90 53 63.5469)" fill="black"/>
<path d="M431.637 90.0938C425.105 90.0938 419.918 88.6875 416.074 85.875C412.23 83.0625 409.98 79.25 409.324 74.4375H420.902C421.465 76.5625 422.699 78.1719 424.605 79.2656C426.512 80.3906 428.855 80.9531 431.637 80.9531C435.324 80.9531 438.184 79.9531 440.215 77.9531C442.277 75.9531 443.309 73.0625 443.309 69.2812V61.7344H443.262C441.668 64.6406 439.59 66.7812 437.027 68.1562C434.465 69.5 431.559 70.1719 428.309 70.1719C423.996 70.1719 420.23 69.0938 417.012 66.9375C413.793 64.7812 411.293 61.8125 409.512 58.0312C407.762 54.2188 406.887 49.8281 406.887 44.8594C406.887 39.8594 407.777 35.4375 409.559 31.5938C411.34 27.75 413.84 24.75 417.059 22.5938C420.277 20.4375 423.996 19.3594 428.215 19.3594C431.434 19.3594 434.34 20.0469 436.934 21.4219C439.559 22.7656 441.684 24.8594 443.309 27.7031H443.355V20.3438H455.027V68.5781C455.027 73.6719 454.012 77.7969 451.98 80.9531C449.949 84.1406 447.168 86.4531 443.637 87.8906C440.105 89.3594 436.105 90.0938 431.637 90.0938ZM431.074 60.4219C434.949 60.4219 438.043 59 440.355 56.1562C442.699 53.2812 443.871 49.4688 443.871 44.7188C443.871 39.9688 442.699 36.1719 440.355 33.3281C438.043 30.4531 434.949 29.0156 431.074 29.0156C427.418 29.0156 424.465 30.375 422.215 33.0938C419.965 35.8125 418.84 39.6875 418.84 44.7188C418.84 49.7812 419.965 53.6719 422.215 56.3906C424.465 59.0781 427.418 60.4219 431.074 60.4219Z" fill="black"/>
<path d="M379.439 70.9688C374.564 70.9688 370.298 69.8906 366.642 67.7344C362.986 65.5469 360.126 62.5156 358.064 58.6406C356.033 54.7656 355.017 50.2656 355.017 45.1406C355.017 40.0156 356.033 35.5156 358.064 31.6406C360.126 27.7344 362.986 24.6875 366.642 22.5C370.298 20.3125 374.564 19.2188 379.439 19.2188C384.283 19.2188 388.533 20.3125 392.189 22.5C395.876 24.6875 398.736 27.7344 400.767 31.6406C402.83 35.5156 403.861 40.0156 403.861 45.1406C403.861 50.2656 402.83 54.7656 400.767 58.6406C398.736 62.5156 395.876 65.5469 392.189 67.7344C388.533 69.8906 384.283 70.9688 379.439 70.9688ZM379.439 61.0781C383.22 61.0781 386.236 59.6562 388.486 56.8125C390.736 53.9688 391.861 50.0781 391.861 45.1406C391.861 40.2031 390.736 36.2969 388.486 33.4219C386.236 30.5469 383.22 29.1094 379.439 29.1094C375.626 29.1094 372.595 30.5469 370.345 33.4219C368.095 36.2656 366.97 40.1719 366.97 45.1406C366.97 50.0781 368.095 53.9688 370.345 56.8125C372.595 59.6562 375.626 61.0781 379.439 61.0781Z" fill="black"/>
<path d="M349.694 0V69.8438H337.881V0H349.694Z" fill="black"/>
<path d="M306.824 69.8438V20.3438H318.214V28.5469H318.355C319.261 25.7344 320.683 23.5938 322.621 22.125C324.589 20.625 327.167 19.875 330.355 19.875C331.167 19.875 331.886 19.9062 332.511 19.9688C333.167 20 333.73 20.0312 334.199 20.0625V30.5625C333.761 30.5 333.011 30.4219 331.949 30.3281C330.886 30.2344 329.777 30.1875 328.621 30.1875C325.808 30.1875 323.433 31.1562 321.496 33.0938C319.589 35.0312 318.636 37.9375 318.636 41.8125V69.8438H306.824Z" fill="black"/>
<path d="M278.391 70.9688C273.454 70.9688 269.172 69.8594 265.547 67.6406C261.922 65.4219 259.125 62.375 257.157 58.5C255.219 54.5938 254.25 50.1406 254.25 45.1406C254.25 40.1094 255.25 35.6562 257.25 31.7812C259.282 27.875 262.079 24.8125 265.641 22.5938C269.204 20.3438 273.297 19.2188 277.922 19.2188C282.672 19.2188 286.829 20.3125 290.391 22.5C293.954 24.6875 296.719 27.7188 298.688 31.5938C300.657 35.4375 301.641 39.8906 301.641 44.9531V48.1875H265.829C265.985 52.2188 267.172 55.4688 269.391 57.9375C271.61 60.4062 274.704 61.6406 278.672 61.6406C281.641 61.6406 284.094 61 286.032 59.7188C287.969 58.4062 289.282 56.6875 289.969 54.5625H301.032C300.407 57.7812 299.032 60.625 296.907 63.0938C294.813 65.5625 292.172 67.5 288.985 68.9062C285.797 70.2812 282.266 70.9688 278.391 70.9688ZM265.922 40.0312H290.297C289.922 36.5 288.641 33.7188 286.454 31.6875C284.297 29.625 281.516 28.5938 278.11 28.5938C274.672 28.5938 271.875 29.625 269.719 31.6875C267.594 33.7188 266.329 36.5 265.922 40.0312Z" fill="black"/>
<path d="M203.084 89.4375V20.3438H214.709V27.2344H214.85C216.412 24.6094 218.506 22.6406 221.131 21.3281C223.756 20.0156 226.662 19.3594 229.85 19.3594C234.1 19.3594 237.818 20.4531 241.006 22.6406C244.225 24.7969 246.725 27.8125 248.506 31.6875C250.318 35.5312 251.225 39.9844 251.225 45.0469C251.225 50.2031 250.334 54.7188 248.553 58.5938C246.803 62.4375 244.318 65.4375 241.1 67.5938C237.881 69.75 234.115 70.8281 229.803 70.8281C226.553 70.8281 223.662 70.125 221.131 68.7188C218.631 67.3125 216.6 65.2031 215.037 62.3906H214.896V89.4375H203.084ZM227.037 60.9375C230.693 60.9375 233.646 59.5781 235.896 56.8594C238.146 54.1094 239.271 50.1719 239.271 45.0469C239.271 39.9531 238.146 36.0312 235.896 33.2812C233.646 30.5312 230.693 29.1562 227.037 29.1562C223.162 29.1562 220.053 30.6094 217.709 33.5156C215.396 36.3906 214.24 40.2344 214.24 45.0469C214.24 49.8594 215.396 53.7188 217.709 56.625C220.053 59.5 223.162 60.9375 227.037 60.9375Z" fill="black"/>
<path d="M168.558 70.8281C163.37 70.8281 159.136 69.1562 155.854 65.8125C152.573 62.4688 150.933 57.625 150.933 51.2812V20.3438H162.745V49.4062C162.745 53.0312 163.62 55.7812 165.37 57.6562C167.12 59.5312 169.573 60.4688 172.729 60.4688C175.854 60.4688 178.433 59.5 180.464 57.5625C182.526 55.625 183.558 52.5469 183.558 48.3281V20.3438H195.417V69.8438H183.792V62.25C180.323 67.9688 175.245 70.8281 168.558 70.8281Z" fill="black"/>
<path d="M124.75 71.0156C118.719 71.0156 113.672 69.6094 109.609 66.7969C105.578 63.9531 103.375 59.875 103 54.5625H114.672C114.922 56.9688 115.891 58.8438 117.578 60.1875C119.266 61.5 121.594 62.1562 124.562 62.1562C127.406 62.1562 129.641 61.5938 131.266 60.4688C132.922 59.3438 133.75 57.9062 133.75 56.1562C133.75 54.6562 133.141 53.4531 131.922 52.5469C130.703 51.6406 129.062 50.9688 127 50.5312L118.562 48.7969C108.938 46.7969 104.125 42.0312 104.125 34.5C104.125 29.9375 105.938 26.2656 109.562 23.4844C113.188 20.6719 118.016 19.2656 124.047 19.2656C130.047 19.2656 134.922 20.75 138.672 23.7188C142.453 26.6562 144.406 30.6719 144.531 35.7656H133.422C133.359 33.5469 132.5 31.7188 130.844 30.2812C129.188 28.8438 127.016 28.125 124.328 28.125C121.734 28.125 119.688 28.7031 118.188 29.8594C116.688 31.0156 115.938 32.4375 115.938 34.125C115.938 35.5938 116.516 36.7969 117.672 37.7344C118.828 38.6406 120.438 39.3281 122.5 39.7969L131.406 41.625C136.312 42.6562 139.922 44.2812 142.234 46.5C144.578 48.7188 145.75 51.6406 145.75 55.2656C145.75 58.4844 144.844 61.2812 143.031 63.6562C141.25 66 138.781 67.8125 135.625 69.0938C132.469 70.375 128.844 71.0156 124.75 71.0156Z" fill="black"/>
</g>
<defs>
<clipPath id="clip0_2042_2">
<rect width="455" height="90" fill="white"/>
</clipPath>
</defs>
</svg>
