<svg width="456" height="90" viewBox="0 0 456 90" fill="none" xmlns="http://www.w3.org/2000/svg">
<g clip-path="url(#clip0_2013_490)">
<rect x="34.4863" y="44.5" width="19" height="19" fill="white"/>
<rect x="0.486328" y="26.5" width="16" height="37" fill="white"/>
<rect x="53.4863" y="26.5" width="16" height="37" fill="white"/>
<rect x="53.4863" y="10.5" width="16" height="37" transform="rotate(90 53.4863 10.5)" fill="white"/>
<rect x="53.4863" y="63.5" width="16" height="37" transform="rotate(90 53.4863 63.5)" fill="white"/>
<path d="M432.123 90.0469C425.592 90.0469 420.405 88.6406 416.561 85.8281C412.717 83.0156 410.467 79.2031 409.811 74.3906H421.389C421.951 76.5156 423.186 78.125 425.092 79.2188C426.998 80.3438 429.342 80.9062 432.123 80.9062C435.811 80.9062 438.67 79.9062 440.701 77.9062C442.764 75.9062 443.795 73.0156 443.795 69.2344V61.6875H443.748C442.155 64.5938 440.076 66.7344 437.514 68.1094C434.951 69.4531 432.045 70.125 428.795 70.125C424.483 70.125 420.717 69.0469 417.498 66.8906C414.28 64.7344 411.78 61.7656 409.998 57.9844C408.248 54.1719 407.373 49.7812 407.373 44.8125C407.373 39.8125 408.264 35.3906 410.045 31.5469C411.826 27.7031 414.326 24.7031 417.545 22.5469C420.764 20.3906 424.483 19.3125 428.701 19.3125C431.92 19.3125 434.826 20 437.42 21.375C440.045 22.7188 442.17 24.8125 443.795 27.6562H443.842V20.2969H455.514V68.5312C455.514 73.625 454.498 77.75 452.467 80.9062C450.436 84.0938 447.655 86.4062 444.123 87.8438C440.592 89.3125 436.592 90.0469 432.123 90.0469ZM431.561 60.375C435.436 60.375 438.53 58.9531 440.842 56.1094C443.186 53.2344 444.358 49.4219 444.358 44.6719C444.358 39.9219 443.186 36.125 440.842 33.2812C438.53 30.4062 435.436 28.9688 431.561 28.9688C427.905 28.9688 424.951 30.3281 422.701 33.0469C420.451 35.7656 419.326 39.6406 419.326 44.6719C419.326 49.7344 420.451 53.625 422.701 56.3438C424.951 59.0312 427.905 60.375 431.561 60.375Z" fill="white"/>
<path d="M379.925 70.9219C375.05 70.9219 370.784 69.8438 367.128 67.6875C363.472 65.5 360.613 62.4688 358.55 58.5938C356.519 54.7188 355.503 50.2188 355.503 45.0938C355.503 39.9688 356.519 35.4688 358.55 31.5938C360.613 27.6875 363.472 24.6406 367.128 22.4531C370.784 20.2656 375.05 19.1719 379.925 19.1719C384.769 19.1719 389.019 20.2656 392.675 22.4531C396.363 24.6406 399.222 27.6875 401.253 31.5938C403.316 35.4688 404.347 39.9688 404.347 45.0938C404.347 50.2188 403.316 54.7188 401.253 58.5938C399.222 62.4688 396.363 65.5 392.675 67.6875C389.019 69.8438 384.769 70.9219 379.925 70.9219ZM379.925 61.0312C383.706 61.0312 386.722 59.6094 388.972 56.7656C391.222 53.9219 392.347 50.0312 392.347 45.0938C392.347 40.1562 391.222 36.25 388.972 33.375C386.722 30.5 383.706 29.0625 379.925 29.0625C376.113 29.0625 373.081 30.5 370.831 33.375C368.581 36.2188 367.456 40.125 367.456 45.0938C367.456 50.0312 368.581 53.9219 370.831 56.7656C373.081 59.6094 376.113 61.0312 379.925 61.0312Z" fill="white"/>
<path d="M350.18 -0.046875V69.7969H338.368V-0.046875H350.18Z" fill="white"/>
<path d="M307.31 69.7969V20.2969H318.701V28.5H318.841C319.748 25.6875 321.169 23.5469 323.107 22.0781C325.076 20.5781 327.654 19.8281 330.841 19.8281C331.654 19.8281 332.373 19.8594 332.998 19.9219C333.654 19.9531 334.216 19.9844 334.685 20.0156V30.5156C334.248 30.4531 333.498 30.375 332.435 30.2812C331.373 30.1875 330.263 30.1406 329.107 30.1406C326.294 30.1406 323.919 31.1094 321.982 33.0469C320.076 34.9844 319.123 37.8906 319.123 41.7656V69.7969H307.31Z" fill="white"/>
<path d="M278.877 70.9219C273.94 70.9219 269.659 69.8125 266.034 67.5938C262.409 65.375 259.612 62.3281 257.643 58.4531C255.706 54.5469 254.737 50.0938 254.737 45.0938C254.737 40.0625 255.737 35.6094 257.737 31.7344C259.768 27.8281 262.565 24.7656 266.127 22.5469C269.69 20.2969 273.784 19.1719 278.409 19.1719C283.159 19.1719 287.315 20.2656 290.877 22.4531C294.44 24.6406 297.206 27.6719 299.174 31.5469C301.143 35.3906 302.127 39.8438 302.127 44.9062V48.1406H266.315C266.471 52.1719 267.659 55.4219 269.877 57.8906C272.096 60.3594 275.19 61.5938 279.159 61.5938C282.127 61.5938 284.581 60.9531 286.518 59.6719C288.456 58.3594 289.768 56.6406 290.456 54.5156H301.518C300.893 57.7344 299.518 60.5781 297.393 63.0469C295.299 65.5156 292.659 67.4531 289.471 68.8594C286.284 70.2344 282.752 70.9219 278.877 70.9219ZM266.409 39.9844H290.784C290.409 36.4531 289.127 33.6719 286.94 31.6406C284.784 29.5781 282.002 28.5469 278.596 28.5469C275.159 28.5469 272.362 29.5781 270.206 31.6406C268.081 33.6719 266.815 36.4531 266.409 39.9844Z" fill="white"/>
<path d="M203.57 89.3906V20.2969H215.195V27.1875H215.336C216.898 24.5625 218.992 22.5938 221.617 21.2812C224.242 19.9688 227.148 19.3125 230.336 19.3125C234.586 19.3125 238.304 20.4062 241.492 22.5938C244.711 24.75 247.211 27.7656 248.992 31.6406C250.804 35.4844 251.711 39.9375 251.711 45C251.711 50.1562 250.82 54.6719 249.039 58.5469C247.289 62.3906 244.804 65.3906 241.586 67.5469C238.367 69.7031 234.601 70.7812 230.289 70.7812C227.039 70.7812 224.148 70.0781 221.617 68.6719C219.117 67.2656 217.086 65.1562 215.523 62.3438H215.383V89.3906H203.57ZM227.523 60.8906C231.179 60.8906 234.133 59.5312 236.383 56.8125C238.633 54.0625 239.758 50.125 239.758 45C239.758 39.9062 238.633 35.9844 236.383 33.2344C234.133 30.4844 231.179 29.1094 227.523 29.1094C223.648 29.1094 220.539 30.5625 218.195 33.4688C215.883 36.3438 214.726 40.1875 214.726 45C214.726 49.8125 215.883 53.6719 218.195 56.5781C220.539 59.4531 223.648 60.8906 227.523 60.8906Z" fill="white"/>
<path d="M169.044 70.7812C163.856 70.7812 159.622 69.1094 156.341 65.7656C153.06 62.4219 151.419 57.5781 151.419 51.2344V20.2969H163.231V49.3594C163.231 52.9844 164.106 55.7344 165.856 57.6094C167.606 59.4844 170.06 60.4219 173.216 60.4219C176.341 60.4219 178.919 59.4531 180.95 57.5156C183.013 55.5781 184.044 52.5 184.044 48.2812V20.2969H195.903V69.7969H184.278V62.2031C180.81 67.9219 175.731 70.7812 169.044 70.7812Z" fill="white"/>
<path d="M125.236 70.9688C119.205 70.9688 114.158 69.5625 110.096 66.75C106.064 63.9062 103.861 59.8281 103.486 54.5156H115.158C115.408 56.9219 116.377 58.7969 118.064 60.1406C119.752 61.4531 122.08 62.1094 125.049 62.1094C127.893 62.1094 130.127 61.5469 131.752 60.4219C133.408 59.2969 134.236 57.8594 134.236 56.1094C134.236 54.6094 133.627 53.4062 132.408 52.5C131.189 51.5938 129.549 50.9219 127.486 50.4844L119.049 48.75C109.424 46.75 104.611 41.9844 104.611 34.4531C104.611 29.8906 106.424 26.2188 110.049 23.4375C113.674 20.625 118.502 19.2188 124.533 19.2188C130.533 19.2188 135.408 20.7031 139.158 23.6719C142.939 26.6094 144.893 30.625 145.018 35.7188H133.908C133.846 33.5 132.986 31.6719 131.33 30.2344C129.674 28.7969 127.502 28.0781 124.814 28.0781C122.221 28.0781 120.174 28.6562 118.674 29.8125C117.174 30.9688 116.424 32.3906 116.424 34.0781C116.424 35.5469 117.002 36.75 118.158 37.6875C119.314 38.5938 120.924 39.2812 122.986 39.75L131.893 41.5781C136.799 42.6094 140.408 44.2344 142.721 46.4531C145.064 48.6719 146.236 51.5938 146.236 55.2188C146.236 58.4375 145.33 61.2344 143.518 63.6094C141.736 65.9531 139.268 67.7656 136.111 69.0469C132.955 70.3281 129.33 70.9688 125.236 70.9688Z" fill="white"/>
</g>
<defs>
<clipPath id="clip0_2013_490">
<rect width="455.03" height="90" fill="white"/>
</clipPath>
</defs>
</svg>
