<svg width="673" height="630" viewBox="0 0 673 630" fill="none" xmlns="http://www.w3.org/2000/svg">
<path d="M203.102 628.687C202.413 629.892 200.148 630.086 198.855 629.579C187.68 625.196 175.482 619.308 164.873 613.692C155.066 608.501 144.251 602.183 135.139 595.852C133.01 594.373 128.832 591.792 130.084 589.523L303.688 275.19C306.89 269.394 310.953 263.016 315.497 258.2C318.317 255.211 322.834 253.463 326.287 251.234C329.643 249.067 344.6 248.854 347.525 251.573C352.731 256.412 360.322 260.495 363.794 266.695L542.199 585.275C542.866 586.466 543.434 588.457 542.582 589.523C539.297 593.632 534.733 597.68 530.177 600.312C512.988 610.246 492.741 619.774 474.957 628.602C473.69 629.231 471.987 630.443 470.709 629.834C468.097 628.59 465.663 626.03 464.253 623.504L339.03 399.139C338.057 397.395 335.813 397.175 334.783 398.885C333.423 401.141 331.842 403.65 330.534 405.936L203.102 628.687Z" fill="url(#paint0_linear_45_36)"/>
<path d="M492.293 225.417C484.391 210.892 473.024 195.956 462.558 183.152C455.976 175.1 447.218 167.184 439.238 160.512C432.002 154.463 423.377 148.142 415.154 143.521C406.289 138.539 395.93 133.254 386.099 130.651C372.826 127.136 357.335 125.287 343.622 124.576C331.783 123.962 318.27 124.308 306.624 126.53C293.424 129.049 278.816 133.654 266.611 139.273C255.124 144.561 243.091 152.488 233.181 160.342C224.104 167.536 214.721 176.825 207.652 185.999C196.957 199.878 186.342 216.616 177.96 232.001L45.9174 474.383C42.5861 480.497 33.5672 479.722 31.3307 473.128C24.6013 453.288 15.4176 431.443 10.3023 411.127C5.59558 392.437 2.46509 370.857 0.745022 351.66C-0.467618 338.121 -0.110019 322.716 1.16955 309.183C2.7258 292.724 5.33388 274.187 9.58011 258.209C14.7623 238.712 22.186 217.115 30.5216 198.742C38.9002 180.274 49.9229 160.091 61.6148 143.521C74.1127 125.808 90.4784 107.513 105.749 92.124C116.929 80.8574 131.32 70.0959 143.978 60.5203C150.384 55.6747 158.05 50.7671 165.218 47.1403C185.278 36.9898 207.895 25.4636 228.933 17.5332C243.38 12.0886 260.537 8.62457 275.659 5.51192C286.407 3.30072 298.681 1.46787 309.641 0.924805C327.29 0.0503091 347.281 -0.693412 364.861 1.09451C386.853 3.33167 411.444 7.84091 432.824 13.4553C448.295 17.5183 465.152 24.2437 479.549 31.2107C496.517 39.4226 515.473 49.3845 530.522 60.733C550.707 75.9538 571.941 95.1827 589.056 113.787C602.725 128.644 615.863 147.435 626.224 164.76C636.271 181.563 645.905 201.57 652.56 219.98C659.723 239.8 665.762 262.906 669.21 283.696C672.331 302.507 673.094 324.096 672.991 343.164C672.917 356.827 670.818 372.15 668.659 385.641C666.895 396.665 664.307 409.037 660.758 419.623C655.212 436.166 649.066 456.951 642.526 473.128C639.996 479.386 629.45 479.057 626.224 473.128L492.293 225.417Z" fill="url(#paint1_linear_45_36)"/>
<defs>
<linearGradient id="paint0_linear_45_36" x1="376.175" y1="472.867" x2="763.913" y2="797.641" gradientUnits="userSpaceOnUse">
<stop offset="0.131448"/>
<stop offset="0.911074" stop-color="white"/>
</linearGradient>
<linearGradient id="paint1_linear_45_36" x1="376.175" y1="472.867" x2="763.913" y2="797.641" gradientUnits="userSpaceOnUse">
<stop offset="0.131448"/>
<stop offset="0.911074" stop-color="white"/>
</linearGradient>
</defs>
</svg>
