<svg width="250" height="80" viewBox="0 0 250 80" fill="none" xmlns="http://www.w3.org/2000/svg">
<path fill-rule="evenodd" clip-rule="evenodd" d="M73.5996 1.63277e-09C75.8398 1.63277e-09 76.9608 -0.000427067 77.8164 0.435547C78.5689 0.819016 79.181 1.43109 79.5645 2.18359C80.0004 3.03924 80 4.16018 80 6.40039V73.5996C80 75.8398 80.0004 76.9608 79.5645 77.8164C79.181 78.5689 78.5689 79.181 77.8164 79.5645C76.9608 80.0004 75.8398 80 73.5996 80H55L53 70H57V62H23V70H27L25 80H6.40039C4.16018 80 3.03924 80.0004 2.18359 79.5645C1.43109 79.181 0.819016 78.5689 0.435547 77.8164C-0.000427067 76.9608 1.63254e-09 75.8398 1.63254e-09 73.5996V6.40039C1.63254e-09 4.16018 -0.000427067 3.03924 0.435547 2.18359C0.819016 1.43109 1.43109 0.819016 2.18359 0.435547C3.03924 -0.000427067 4.16018 1.63277e-09 6.40039 1.63277e-09H73.5996ZM28.916 39.083L21 32L15 36L26 56H54L65 36L59 32L51.083 39.083L40 28L28.916 39.083ZM33 17L40 24L47 17L40 10L33 17Z" fill="#292524"/>
<path fill-rule="evenodd" clip-rule="evenodd" d="M232.66 30.0332C236.121 30.0332 239.15 30.8036 241.746 32.3457C244.342 33.8879 246.361 36.0362 247.804 38.79C249.268 41.5219 250 44.6946 250 48.3076C250 51.9206 249.268 55.0934 247.804 57.8252C246.362 60.557 244.342 62.6942 241.746 64.2363C239.15 65.7564 236.121 66.5156 232.66 66.5156C229.221 66.5156 226.192 65.7564 223.574 64.2363C220.978 62.6942 218.948 60.557 217.483 57.8252C216.041 55.0934 215.32 51.9206 215.32 48.3076C215.32 44.6946 216.041 41.5219 217.483 38.79C218.948 36.0362 220.978 33.8879 223.574 32.3457C226.192 30.8036 229.221 30.0332 232.66 30.0332ZM232.66 37.0059C230.863 37.0059 229.299 37.4683 227.968 38.3936C226.637 39.2968 225.604 40.5966 224.872 42.293C224.162 43.9673 223.808 45.9724 223.808 48.3076C223.808 50.6428 224.162 52.6479 224.872 54.3223C225.604 55.9965 226.637 57.2852 227.968 58.1885C229.299 59.0916 230.863 59.543 232.66 59.543C234.457 59.543 236.01 59.0916 237.319 58.1885C238.651 57.2852 239.672 55.9965 240.382 54.3223C241.114 52.6259 241.479 50.6208 241.479 48.3076C241.479 45.9724 241.114 43.9673 240.382 42.293C239.672 40.5966 238.651 39.2968 237.319 38.3936C236.01 37.4684 234.457 37.0059 232.66 37.0059Z" fill="#292524"/>
<path fill-rule="evenodd" clip-rule="evenodd" d="M178.285 30.1318C180.57 30.1318 182.612 30.4072 184.409 30.958C186.229 31.4867 187.759 32.2693 189.002 33.3047C190.267 34.3401 191.221 35.5851 191.864 37.0391C192.53 38.493 192.862 40.1233 192.862 41.9297V65.7227H184.608V60.7988H184.476C183.921 61.8343 183.2 62.7712 182.312 63.6084C181.425 64.4235 180.315 65.073 178.984 65.5576C177.653 66.0423 176.033 66.2851 174.125 66.2852C171.795 66.2852 169.71 65.899 167.868 65.1279C166.049 64.3568 164.606 63.1892 163.541 61.625C162.498 60.061 161.977 58.1225 161.977 55.8096C161.977 53.8268 162.354 52.1958 163.108 50.918C163.863 49.6182 164.884 48.5826 166.171 47.8115C167.458 47.0406 168.933 46.4571 170.597 46.0605C172.261 45.642 173.992 45.3442 175.789 45.168C177.963 44.9257 179.683 44.7163 180.947 44.54C182.234 44.3418 183.155 44.0664 183.71 43.7139C184.265 43.3394 184.542 42.7558 184.542 41.9629V41.6982C184.542 40.6848 184.287 39.8037 183.776 39.0547C183.266 38.2837 182.523 37.6891 181.547 37.2705C180.593 36.8299 179.45 36.6094 178.119 36.6094C176.766 36.6094 175.567 36.8299 174.524 37.2705C173.504 37.6891 172.694 38.2836 172.095 39.0547C171.496 39.8037 171.151 40.6737 171.062 41.665H162.976C163.131 39.352 163.83 37.3365 165.072 35.6182C166.337 33.8777 168.09 32.5333 170.331 31.5859C172.572 30.6167 175.223 30.1318 178.285 30.1318ZM184.575 49.0342C184.309 49.1884 183.92 49.3429 183.41 49.4971C182.9 49.6513 182.29 49.8058 181.58 49.96C180.892 50.0921 180.137 50.2243 179.316 50.3564C178.518 50.4886 177.686 50.6208 176.82 50.7529C175.622 50.9072 174.513 51.1826 173.492 51.5791C172.494 51.9536 171.684 52.4821 171.062 53.165C170.463 53.826 170.164 54.6857 170.164 55.7432C170.164 56.6462 170.409 57.428 170.896 58.0889C171.407 58.7498 172.106 59.2569 172.993 59.6094C173.903 59.9398 174.968 60.1055 176.188 60.1055C178.03 60.1054 179.572 59.7751 180.814 59.1143C182.057 58.4533 182.989 57.5713 183.61 56.4697C184.254 55.3683 184.575 54.1455 184.575 52.8018V49.0342Z" fill="#292524"/>
<path fill-rule="evenodd" clip-rule="evenodd" d="M127.938 16.4834C131.576 16.4834 134.716 17.1226 137.356 18.4004C140.019 19.6782 142.06 21.4963 143.479 23.8535C144.922 26.2108 145.644 28.9974 145.644 32.2139C145.644 35.4524 144.911 38.2501 143.446 40.6074C141.982 42.9647 139.907 44.7939 137.223 46.0938C134.56 47.3714 131.409 48.0098 127.771 48.0098H117.786V65.7227H109V16.4834H127.938ZM117.786 40.542H127.438C129.413 40.542 131.11 40.2107 132.53 39.5498C133.972 38.8669 135.071 37.9085 135.825 36.6748C136.602 35.4191 136.99 33.9321 136.99 32.2139C136.99 30.4955 136.602 29.03 135.825 27.8184C135.071 26.5848 133.972 25.6374 132.53 24.9766C131.11 24.2937 129.413 23.9522 127.438 23.9521H117.786V40.542Z" fill="#292524"/>
<path d="M157.771 65.7227H149.384V16.4834H157.771V65.7227Z" fill="#292524"/>
<path d="M206.854 30.8262H214.042V37.5342H206.854V55.71C206.854 56.9436 207.109 57.8024 207.619 58.2871C208.129 58.7718 209.073 59.0146 210.448 59.0146H214.042V65.7227H208.983C205.389 65.7227 202.738 65.007 201.029 63.5752C199.321 62.1212 198.467 59.9068 198.467 56.9326V21.3086H206.854V30.8262Z" fill="#292524"/>
</svg>
