<?xml version="1.0" encoding="UTF-8"?>
<!DOCTYPE svg PUBLIC "-//W3C//DTD SVG 1.0//EN" "http://www.w3.org/TR/2001/REC-SVG-20010904/DTD/svg10.dtd">
<!-- Creator: CorelDRAW -->
<svg xmlns="http://www.w3.org/2000/svg" xml:space="preserve" width="4.6923in" height="4.8968in" version="1.0" style="shape-rendering:geometricPrecision; text-rendering:geometricPrecision; image-rendering:optimizeQuality; fill-rule:evenodd; clip-rule:evenodd"
viewBox="0 0 98.96 103.28"
 xmlns:xlink="http://www.w3.org/1999/xlink"
 xmlns:xodm="http://www.corel.com/coreldraw/odm/2003">
 <defs>
  <style type="text/css">
   <![CDATA[
    .fil0 {fill:url(#id0)}
   ]]>
  </style>
  <linearGradient id="id0" gradientUnits="userSpaceOnUse" x1="9.17" y1="21.62" x2="89.79" y2="81.66">
   <stop offset="0" style="stop-opacity:1; stop-color:#007a68"/>
   <stop offset="1" style="stop-opacity:1; stop-color:#007a68"/>
  </linearGradient>
 </defs>
 <g id="Layer_x0020_1">
  <metadata id="CorelCorpID_0Corel-Layer"/>
  <path class="fil0" d="M71.52 67.11c-2.61,0.74 -5.3,1.16 -8.03,1.42l-0.12 -17.92c-0.05,-7.7 4.62,-13.6 11.62,-13.94l14.67 0c0.79,0 1.31,-0.54 1.31,-1.13 0,-8.73 0,-16.83 0,-25.58 0,-1.09 -0.83,-1.97 -1.82,-1.97l-28.66 0c-13.02,0.24 -25.06,7.89 -26.07,28.64 17.63,0.96 29.38,-11.52 29.38,-28.63 0,-0 -0,-0.01 0,-0.01l7.01 0c0.01,0 0.01,0.01 0.01,0.02 0.69,14.96 -6.24,30.56 -24.84,35.43 -2.99,0.78 -7.53,0.91 -12.93,0.89l-28.82 0c-2.32,0 -4.23,-1.85 -4.23,-4.16l0 -35.95c0,-2.32 1.9,-4.22 4.22,-4.22l90.53 0c2.32,0 4.22,1.9 4.22,4.22l0 35.95c0,2.32 -1.9,4.22 -4.22,4.22l-17.08 0c-2.86,0 -5.23,1.89 -5.96,4.5 7.32,0.54 13.56,6.8 13.77,13.42 0.18,5.58 -3.35,10.79 -8.58,12.73 -1.69,0.71 -3.5,1.25 -5.38,1.67l-0 22.39c-0,2.32 -1.88,4.19 -4.2,4.19l-36.58 0c-2.32,0 -4.16,-1.91 -4.16,-4.23l0 -2.69c-7.09,-0.3 -11.64,-6.57 -10.74,-12.56 0.99,-6.57 6.68,-10.46 12.84,-11.51 14.94,-2.71 31.97,1.58 45.87,-3.63 5.37,-2.45 6.5,-12.43 -3.04,-12.85l0.03 9.16 -0 2.14zm-8.03 10.64c-9.47,0.6 -19.95,-0.46 -28.8,0.48l0 3.02 -0.02 11.24c0,0.97 0.23,2.8 2.16,2.8l23.99 0c2.09,0 2.67,-1.3 2.67,-2.44l0.01 -15.1zm-36.92 2.3c-1.99,0.96 -3.67,2.51 -4.02,4.77 -0.39,2.57 0.82,4.97 4.01,5.19l0 -8.72 0 -1.24zm8.12 -11.02c-2.45,0.16 -5.64,0.56 -8.11,1.21l0.03 -25.91 8.07 0 0 24.7zm-5.36 -60.91l-19.72 0c-1.2,0 -1.62,0.86 -1.62,2.08l0 25.28c0,0.72 0.55,1.32 1.23,1.32l15.87 0c0.45,0 1.06,-0.31 1.17,-0.9 2.52,-13.9 2.9,-17.35 10.65,-25.71 0.75,-0.76 1.51,-1.46 2.29,-2.1 -3.29,0 -6.58,0.03 -9.86,0.03z"/>
 </g>
</svg>
